<svg width="210" height="149" viewBox="0 0 210 149" fill="none" xmlns="http://www.w3.org/2000/svg">
<g clip-path="url(#clip0_132_614)">
<path d="M107.251 147.851C113.567 147.851 118.687 142.725 118.687 136.401C118.687 130.078 113.567 124.952 107.251 124.952C100.935 124.952 95.8149 130.078 95.8149 136.401C95.8149 142.725 100.935 147.851 107.251 147.851Z" fill="url(#paint0_linear_132_614)"/>
<path d="M175.573 147.208C181.971 145.284 188.773 143.279 193.848 138.705C198.382 134.619 201.443 128.378 199.564 122.25C197.69 116.133 192.075 112.055 186.278 110.027C182.99 108.876 179.55 108.238 176.112 107.737C172.374 107.192 168.619 106.745 164.867 106.315C149.671 104.576 134.419 103.513 119.11 103.127C111.556 102.936 104.003 102.941 96.4472 103.051C89.6998 103.149 82.5937 103.146 76.3344 100.275C71.4668 98.0428 67.0491 93.9806 65.6929 88.643C64.1273 82.4815 67.015 76.2067 71.1575 71.7443C73.341 69.3921 75.893 67.4123 78.5254 65.5919C81.3814 63.6172 84.337 61.7812 87.3566 60.0693C93.3039 56.6971 99.5217 53.8272 105.945 51.4895C109.114 50.336 112.33 49.3408 115.574 48.4234C118.313 47.6481 121.06 46.8717 123.707 45.8154C128.825 43.7734 133.692 40.3147 134.993 34.6442C136.226 29.27 134.147 23.4356 130.502 19.4431C126.285 14.8241 119.926 12.7994 113.83 12.4717C106.986 12.104 100.299 13.8188 93.8666 15.9953C87.0055 18.3168 80.2925 20.9858 73.2866 22.866C66.3392 24.7288 59.2574 26.0468 52.1055 26.8081C48.6055 27.1804 44.9974 27.6029 41.4755 27.3171C38.5239 27.0777 35.5872 26.2085 33.412 24.1113C31.5467 22.313 30.4356 19.8406 30.8176 17.2334C30.8869 16.7597 31.6051 16.9611 31.5368 17.4318C31.0718 20.6074 33.2273 23.5322 35.8836 25.0313C38.9535 26.7632 42.6894 26.7656 46.1071 26.5676C53.5181 26.1195 60.879 25.0541 68.1134 23.3826C75.2227 21.7572 82.0766 19.4333 88.9235 16.9511C95.4263 14.5935 102.075 12.2926 109.022 11.7825C115.049 11.3395 121.391 12.2186 126.642 15.3725C131.258 18.1442 134.651 22.7668 135.733 28.0713C136.789 33.2548 135.326 38.4719 131.407 42.0891C127.349 45.8341 121.785 47.4354 116.6 48.91C110.023 50.7803 103.588 52.9667 97.3589 55.8054C91.045 58.6748 84.9896 62.0831 79.2598 65.9927C73.7289 69.7767 68.2706 74.5379 66.5215 81.2883C65.7067 84.4328 65.8572 87.7679 67.2215 90.738C68.4338 93.379 70.4304 95.6 72.7559 97.3137C78.3051 101.402 85.2992 102.241 92.0024 102.325C99.5309 102.419 107.06 102.164 114.591 102.288C129.938 102.54 145.255 103.475 160.539 105.094C164.369 105.5 168.195 105.948 172.015 106.44C175.451 106.882 178.899 107.321 182.277 108.106C188.285 109.502 194.13 112.186 197.864 117.285C199.521 119.495 200.547 122.114 200.834 124.863C201.095 127.732 200.394 130.605 199.098 133.157C196.231 138.804 190.861 142.397 185.158 144.757C182.103 146.021 178.935 146.979 175.772 147.93C175.311 148.068 175.114 147.348 175.574 147.209L175.573 147.208Z" fill="#F2F2F2"/>
<path d="M31.2994 23.2729C34.5948 23.2729 37.2662 20.5983 37.2662 17.299C37.2662 13.9998 34.5948 11.3252 31.2994 11.3252C28.004 11.3252 25.3325 13.9998 25.3325 17.299C25.3325 20.5983 28.004 23.2729 31.2994 23.2729Z" fill="#F2F2F2"/>
<path d="M72.6939 34.5985C75.9893 34.5985 78.6607 31.924 78.6607 28.6247C78.6607 25.3255 75.9893 22.6509 72.6939 22.6509C69.3985 22.6509 66.7271 25.3255 66.7271 28.6247C66.7271 31.924 69.3985 34.5985 72.6939 34.5985Z" fill="#F2F2F2"/>
<path d="M107.749 11.9477C111.044 11.9477 113.716 9.27309 113.716 5.97383C113.716 2.67458 111.044 0 107.749 0C104.454 0 101.782 2.67458 101.782 5.97383C101.782 9.27309 104.454 11.9477 107.749 11.9477Z" fill="#F2F2F2"/>
<path d="M129.627 37.3359C132.922 37.3359 135.594 34.6613 135.594 31.362C135.594 28.0628 132.922 25.3882 129.627 25.3882C126.332 25.3882 123.66 28.0628 123.66 31.362C123.66 34.6613 126.332 37.3359 129.627 37.3359Z" fill="#F2F2F2"/>
<path d="M100.042 66.7074C103.337 66.7074 106.008 64.0329 106.008 60.7336C106.008 57.4343 103.337 54.7598 100.042 54.7598C96.7462 54.7598 94.0747 57.4343 94.0747 60.7336C94.0747 64.0329 96.7462 66.7074 100.042 66.7074Z" fill="#F2F2F2"/>
<path d="M62.5005 80.8949C65.7959 80.8949 68.4674 78.2204 68.4674 74.9211C68.4674 71.6218 65.7959 68.9473 62.5005 68.9473C59.2051 68.9473 56.5337 71.6218 56.5337 74.9211C56.5337 78.2204 59.2051 80.8949 62.5005 80.8949Z" fill="#F2F2F2"/>
<path d="M102.279 103.048C105.575 103.048 108.246 100.374 108.246 97.0744C108.246 93.7752 105.575 91.1006 102.279 91.1006C98.9839 91.1006 96.3125 93.7752 96.3125 97.0744C96.3125 100.374 98.9839 103.048 102.279 103.048Z" fill="#F2F2F2"/>
<path d="M145.041 115.493C148.336 115.493 151.008 112.819 151.008 109.519C151.008 106.22 148.336 103.545 145.041 103.545C141.746 103.545 139.074 106.22 139.074 109.519C139.074 112.819 141.746 115.493 145.041 115.493Z" fill="#F2F2F2"/>
<path d="M195.013 112.755C198.309 112.755 200.98 110.081 200.98 106.781C200.98 103.482 198.309 100.808 195.013 100.808C191.718 100.808 189.046 103.482 189.046 106.781C189.046 110.081 191.718 112.755 195.013 112.755Z" fill="#F2F2F2"/>
<path d="M106.026 16.9266C88.1531 17.053 73.5185 31.5948 73.2645 49.4878C73.2621 49.653 73.261 50.8146 73.2613 52.3349C73.2615 54.5623 74.1455 56.6984 75.7186 58.2734C77.2917 59.8485 79.4253 60.7335 81.6501 60.7338C82.7529 60.7336 83.8448 60.516 84.8635 60.0932C85.8822 59.6704 86.8077 59.0508 87.5872 58.2699C88.3666 57.4889 88.9848 56.5618 89.4063 55.5416C89.8278 54.5214 90.0444 53.428 90.0438 52.324C90.0438 51.2887 90.0424 50.5732 90.0424 50.5294C90.0419 47.7641 90.7604 45.0463 92.1273 42.6433C93.4941 40.2404 95.4622 38.235 97.8379 36.8245C100.214 35.414 102.915 34.6469 105.677 34.5988C108.439 34.5507 111.165 35.2231 113.589 36.5499C116.012 37.8768 118.048 39.8124 119.498 42.1663C120.948 44.5201 121.76 47.2113 121.856 49.9749C121.951 52.7386 121.327 55.4795 120.043 57.9282C118.76 60.3769 116.862 62.4489 114.536 63.9405L114.539 63.944C114.539 63.944 102.599 71.639 98.9585 82.1964H98.9615C98.3216 84.3593 97.9974 86.6035 97.999 88.8593C97.999 89.7865 98.0535 97.8998 98.1587 104.485C98.1955 106.757 99.123 108.924 100.741 110.517C102.359 112.111 104.538 113.004 106.808 113.003C107.949 113.003 109.078 112.777 110.131 112.339C111.184 111.9 112.14 111.257 112.944 110.448C113.748 109.638 114.384 108.677 114.815 107.62C115.247 106.563 115.465 105.431 115.458 104.289C115.422 98.2581 115.402 91.2361 115.402 90.7261C115.402 84.2435 121.649 77.7841 126.78 73.572C132.688 68.7214 136.94 62.1116 138.648 54.6553C139.026 53.1205 139.234 51.5489 139.269 49.9686C139.269 45.6092 138.408 41.2929 136.734 37.2684C135.061 33.2439 132.608 29.5907 129.518 26.5193C126.428 23.448 122.762 21.0191 118.73 19.3728C114.698 17.7264 110.381 16.8951 106.026 16.9266Z" fill="url(#paint1_linear_132_614)"/>
<path d="M209.704 148.165H0.29646C0.217964 148.165 0.142681 148.134 0.0871758 148.078C0.0316709 148.023 0.000488281 147.947 0.000488281 147.869C0.000488281 147.79 0.0316709 147.715 0.0871758 147.659C0.142681 147.603 0.217964 147.572 0.29646 147.572H209.704C209.783 147.572 209.858 147.603 209.914 147.659C209.969 147.715 210 147.79 210 147.869C210 147.947 209.969 148.023 209.914 148.078C209.858 148.134 209.783 148.165 209.704 148.165Z" fill="#3F3D56"/>
<path d="M84.0192 56.7603C81.7943 56.76 79.6607 55.8751 78.0875 54.3001C76.5142 52.7251 75.6302 50.589 75.6299 48.3616C75.6299 46.8415 75.6299 45.6799 75.6332 45.5145C75.7038 40.3108 77.0128 35.199 79.4515 30.603C75.4447 36.0947 73.2415 42.6973 73.1469 49.4974C73.1445 49.6625 73.1434 50.8241 73.1436 52.3444C73.1437 54.572 74.0275 56.7082 75.6007 58.2834C77.1739 59.8585 79.3075 60.7436 81.5324 60.744C83.3607 60.7433 85.1389 60.1451 86.5967 59.0404C88.0544 57.9356 89.1122 56.3847 89.6093 54.6232C88.0732 56.0018 86.0821 56.7629 84.0192 56.7603Z" fill="#3F3D56"/>
<path d="M106.595 34.6254C109.167 34.7484 111.671 35.4945 113.892 36.7998C116.113 38.1051 117.984 39.9305 119.345 42.1192C120.706 44.308 121.516 46.7947 121.705 49.3659C121.895 51.9371 121.458 54.516 120.433 56.881C121.916 55.1373 123.006 53.094 123.629 50.8903C124.251 48.6866 124.392 46.3744 124.041 44.1114C123.691 41.8483 122.857 39.6875 121.596 37.7764C120.336 35.8653 118.678 34.2488 116.737 33.037C114.796 31.8252 112.617 31.0468 110.348 30.7546C108.079 30.4625 105.774 30.6636 103.59 31.3442C101.406 32.0248 99.3943 33.1689 97.6919 34.6985C95.9894 36.2281 94.6364 38.1073 93.7251 40.2078C95.3001 38.3528 97.2797 36.8848 99.5111 35.9169C101.742 34.949 104.166 34.5071 106.595 34.6254Z" fill="#3F3D56"/>
<path d="M109.177 109.031C106.907 109.031 104.727 108.138 103.109 106.544C101.491 104.951 100.564 102.784 100.527 100.512C100.422 93.9282 100.367 85.8149 100.367 84.8877C100.366 82.6319 100.69 80.3877 101.33 78.2248H101.327C101.705 77.1392 102.161 76.0826 102.693 75.0635C101.061 77.24 99.7632 79.6478 98.8408 82.2075H98.8439C98.2039 84.3703 97.8797 86.6145 97.8814 88.8703C97.8814 89.7976 97.9358 97.9109 98.041 104.496C98.0778 106.768 99.0054 108.935 100.623 110.529C102.242 112.122 104.421 113.015 106.69 113.014C108.562 113.014 110.382 112.407 111.879 111.283C113.377 110.159 114.469 108.579 114.994 106.781C113.404 108.232 111.328 109.034 109.177 109.031Z" fill="#3F3D56"/>
<path d="M104.732 145.058C103.107 144.35 101.669 143.273 100.531 141.913C99.3936 140.553 98.5872 138.947 98.1756 137.221C97.7641 135.496 97.7588 133.698 98.16 131.97C98.5613 130.242 99.3582 128.631 100.488 127.264C99.1782 128.222 98.0869 129.447 97.2864 130.859C96.4859 132.271 95.9944 133.837 95.8447 135.454C95.695 137.07 95.8905 138.7 96.4181 140.236C96.9457 141.771 97.7934 143.176 98.9049 144.358C100.016 145.54 101.366 146.472 102.865 147.092C104.364 147.712 105.977 148.006 107.598 147.954C109.219 147.902 110.81 147.505 112.266 146.79C113.722 146.075 115.01 145.059 116.043 143.808C114.431 144.987 112.539 145.723 110.554 145.943C108.569 146.162 106.562 145.857 104.732 145.058V145.058Z" fill="#3F3D56"/>
<path d="M145.522 72.9146L141.395 74.2724V68.3262H145.14L145.522 72.9146Z" fill="#F8A8AB"/>
<path d="M141.906 69.9725C144.177 69.9725 146.019 68.1292 146.019 65.8554C146.019 63.5816 144.177 61.7383 141.906 61.7383C139.635 61.7383 137.794 63.5816 137.794 65.8554C137.794 68.1292 139.635 69.9725 141.906 69.9725Z" fill="#F8A8AB"/>
<path d="M143.036 65.4465C142.347 65.4262 141.895 64.7295 141.628 64.0939C141.362 63.4584 141.086 62.7282 140.447 62.4661C139.925 62.2517 139.003 63.7024 138.592 63.316C138.162 62.9131 138.581 60.845 139.037 60.474C139.493 60.103 140.117 60.0305 140.704 60.0029C142.139 59.9369 143.577 60.0523 144.983 60.3465C145.852 60.5276 146.745 60.8012 147.373 61.4289C148.166 62.2271 148.369 63.4304 148.427 64.5556C148.486 65.7069 148.419 66.9115 147.86 67.9189C147.301 68.9263 146.13 69.669 145.008 69.4121C144.896 68.8024 145.01 68.1758 145.054 67.5551C145.099 66.9345 145.053 66.2671 144.674 65.7739C144.296 65.2807 143.489 65.0847 143.05 65.5225" fill="#2F2E43"/>
<path d="M148.095 66.8733C148.507 66.5722 149 66.319 149.505 66.3817C149.778 66.4259 150.032 66.5489 150.237 66.7357C150.441 66.9224 150.586 67.1647 150.655 67.4329C150.717 67.7026 150.718 67.983 150.656 68.2528C150.594 68.5227 150.472 68.775 150.299 68.9907C149.946 69.4205 149.465 69.7248 148.926 69.8584C148.62 69.9608 148.289 69.9581 147.985 69.8509C147.772 69.7503 147.603 69.5743 147.511 69.3567C147.42 69.1391 147.411 68.8953 147.488 68.672" fill="#2F2E43"/>
<path d="M144.16 139.087H140.295V144.577H144.16V139.087Z" fill="#F8A8AB"/>
<path d="M136.53 147.899C136.123 147.899 135.762 147.89 135.489 147.864C134.463 147.77 133.483 147.01 132.99 146.567C132.882 146.47 132.807 146.342 132.776 146.2C132.744 146.058 132.757 145.91 132.813 145.776C132.853 145.679 132.915 145.593 132.993 145.524C133.071 145.454 133.164 145.403 133.265 145.375L135.978 144.599L140.37 141.631L140.42 141.719C140.659 142.145 140.858 142.592 141.014 143.055C141.043 143.136 141.054 143.222 141.047 143.307C141.04 143.393 141.014 143.475 140.972 143.55C140.921 143.625 140.85 143.684 140.767 143.72C140.847 143.803 141.096 143.973 141.864 144.095C142.984 144.273 143.22 143.11 143.231 143.062L143.238 143.023L143.271 143.001C143.805 142.658 144.133 142.501 144.246 142.534C144.316 142.554 144.434 142.591 144.753 145.757C144.908 146.25 144.944 146.772 144.857 147.281C144.692 148.039 141.385 147.778 140.722 147.719C140.704 147.721 138.227 147.899 136.531 147.899H136.529L136.53 147.899Z" fill="#2F2E43"/>
<path d="M155.166 134.77L151.886 136.817L154.788 141.476L158.067 139.428L155.166 134.77Z" fill="#F8A8AB"/>
<path d="M150.808 147.147C150.416 147.144 150.025 147.109 149.639 147.04C149.497 147.014 149.366 146.945 149.264 146.842C149.162 146.738 149.095 146.606 149.071 146.463C149.054 146.36 149.06 146.254 149.09 146.153C149.12 146.053 149.172 145.96 149.242 145.883L151.136 143.787L153.295 138.942L153.383 138.99C153.811 139.225 154.216 139.499 154.593 139.809C154.661 139.862 154.716 139.929 154.755 140.006C154.794 140.082 154.815 140.167 154.818 140.253C154.815 140.343 154.787 140.431 154.735 140.506C154.846 140.535 155.147 140.547 155.863 140.243C156.907 139.801 156.494 138.688 156.475 138.643L156.461 138.606L156.477 138.571C156.748 137.996 156.942 137.689 157.057 137.658C157.129 137.637 157.247 137.606 159.19 140.125C159.582 140.46 159.888 140.885 160.083 141.363C160.344 142.093 157.4 143.625 156.807 143.924C156.789 143.939 153.708 146.18 152.442 146.818C151.929 147.052 151.369 147.165 150.805 147.149L150.808 147.147Z" fill="#2F2E43"/>
<path d="M147.006 93.1762H136.185L135.203 103.255L139.499 140.493H145.023L142.814 118.986L151.775 138.403L156.685 134.963L149.688 116.834C149.688 116.834 152.187 101.042 150.224 97.1083C148.26 93.1743 147.007 93.1758 147.007 93.1758L147.006 93.1762Z" fill="#2F2E43"/>
<path d="M152.388 93.7896H135.203L140.357 71.5449H147.846L152.388 93.7896Z" fill="#2F2E43"/>
<path d="M130.934 71.1074C130.659 69.7548 131.162 68.5185 132.055 68.3466C132.949 68.1747 133.896 69.1339 134.169 70.4865C134.285 71.0259 134.267 71.5856 134.115 72.1161L135.202 77.8648L132.393 78.3103L131.62 72.5966C131.273 72.1638 131.037 71.6525 130.934 71.1074Z" fill="#F8A8AB"/>
<path d="M147.663 71.5449H141.06L136.608 80.4585L134.929 73.7788L131.239 74.1706C131.239 74.1706 132.112 87.2221 135.927 86.7806C139.742 86.339 148.641 74.5819 147.662 71.543H147.664L147.663 71.5449Z" fill="#2F2E43"/>
<path d="M155.037 105.444C155.312 106.797 154.808 108.033 153.915 108.205C153.022 108.377 152.075 107.418 151.802 106.065C151.685 105.526 151.704 104.966 151.855 104.435L150.768 98.6867L153.577 98.2412L154.351 103.955C154.698 104.388 154.933 104.899 155.037 105.444L155.037 105.444Z" fill="#F8A8AB"/>
<path d="M143.898 71.5452C143.898 71.5452 147.65 71.3864 147.846 71.5452C148.87 72.3824 154.878 102.597 154.878 102.597H151.072L143.898 71.5452Z" fill="#2F2E43"/>
<path d="M27.416 85.9594L31.3139 93.6847L42.9661 98.9886C44.2105 101.094 48.1653 101.255 48.453 99.8944C48.7759 98.3668 43.6503 95.9085 43.6503 95.9085L33.9031 89.3078L33.0499 83.6255L27.416 85.9594Z" fill="#ED9DA0"/>
<path d="M27.876 137.8L27.1572 143.557L31.3262 143.845L31.7569 137.8L27.876 137.8Z" fill="#ED9DA0"/>
<path d="M28.4509 142.693C28.0784 142.299 27.7348 141.878 27.4228 141.434C26.826 140.606 26.2958 144.852 26.2958 144.852C26.2958 144.852 25.7207 146.579 25.8651 147.443C26.0094 148.306 29.315 148.306 29.8901 148.163C30.4651 148.019 33.34 148.163 33.34 148.163H37.6526C41.3904 146.436 37.6526 145.284 37.6526 145.284C36.5024 145.141 32.6214 141.542 32.6214 141.542L31.7588 139.959C31.184 139.815 30.6086 141.974 30.6086 141.974L28.4509 142.693Z" fill="#2F2E43"/>
<path d="M17.0942 137.872L16.375 143.629L20.5441 143.917L20.9749 137.872H17.0942Z" fill="#ED9DA0"/>
<path d="M17.6695 142.766C17.2971 142.371 16.9535 141.95 16.6414 141.506C16.044 140.678 15.514 144.925 15.514 144.925C15.514 144.925 14.9391 146.508 15.0833 147.371C15.2274 148.235 18.5332 148.234 19.1083 148.091C19.6834 147.949 22.5582 148.235 22.5582 148.235H26.8708C30.6086 146.508 26.8708 145.357 26.8708 145.357C25.7206 145.213 21.8396 141.614 21.8396 141.614L20.977 140.031C20.4022 139.887 19.8268 142.046 19.8268 142.046L17.6695 142.766Z" fill="#2F2E43"/>
<path d="M21.8385 100.74C21.2635 101.46 21.5511 103.906 21.5511 103.906C21.5511 103.906 20.5449 111.822 20.9762 112.542C21.4076 113.261 20.6888 113.837 20.257 114.845C19.8252 115.852 19.3942 118.299 19.3942 118.299C16.9504 120.313 17.0941 129.525 17.0941 129.525L16.2324 137.728C16.5199 138.592 20.5451 138.736 21.1204 138.592C21.6957 138.448 23.4205 125.495 23.4205 125.495L27.3018 118.155C27.3018 118.155 27.0144 137.728 27.0144 138.593C27.0144 139.457 30.8957 139.024 31.7582 139.024C32.6207 139.024 32.6207 124.631 32.6207 124.631L33.4833 120.89L38.0836 103.763V101.748L37.3643 100.741C37.3643 100.741 22.4134 100.02 21.8385 100.74Z" fill="#2F2E43"/>
<path d="M30.3917 65.6943C29.4884 67.7092 30.0231 70.5217 31.8302 73.6101L24.4985 70.1564L25.6487 69.1489L25.3619 66.271L30.3917 65.6943Z" fill="#ED9DA0"/>
<path d="M28.1636 68.0696C30.6249 68.0696 32.6202 66.072 32.6202 63.6078C32.6202 61.1436 30.6249 59.146 28.1636 59.146C25.7023 59.146 23.707 61.1436 23.707 63.6078C23.707 66.072 25.7023 68.0696 28.1636 68.0696Z" fill="#ED9DA0"/>
<path d="M30.392 70.3C31.352 70.8714 31.9263 71.9207 32.2559 72.9899C32.8661 74.9678 33.2334 77.0129 33.3497 79.0798L33.6977 85.2674L38.0104 101.675C34.273 104.841 32.1172 104.122 27.0851 101.531C22.053 98.9403 21.4786 102.395 21.4786 102.395C21.4786 102.395 21.0478 102.251 21.4786 101.82C21.9093 101.388 21.4785 101.82 21.0478 101.388C20.6171 100.957 21.0478 101.388 21.1916 100.957C21.3353 100.526 21.1915 100.813 21.0478 100.669C20.9041 100.526 21.6227 99.2292 21.6227 99.2292L20.4732 88.4344L19.0347 73.1786C20.7597 71.0197 25.647 69.1489 25.647 69.1489L30.1043 72.3153C31.5428 72.8909 30.3917 70.5882 30.3917 70.5882L30.392 70.3Z" fill="#E6E6E6"/>
<path d="M16.6633 82.3174L16.0884 90.9528L23.4207 101.459C23.4207 103.906 24.7143 104.481 24.7143 104.481C25.2044 103.698 25.6367 102.881 26.008 102.035C26.7273 100.452 25.5773 99.1563 25.5773 99.1563L20.5461 88.5063L22.7025 83.1811L16.6633 82.3174Z" fill="#ED9DA0"/>
<path d="M19.106 73.2503C16.6621 74.1139 16.231 83.4692 16.231 83.4692C19.106 81.886 22.5561 84.4766 22.5561 84.4766C22.5561 84.4766 23.2754 82.0299 24.1375 78.8637C24.3979 77.973 24.429 77.0308 24.2279 76.1249C24.0268 75.2189 23.6 74.3786 22.9873 73.6822C22.9873 73.6822 21.5512 72.387 19.106 73.2503Z" fill="#E6E6E6"/>
<path d="M26.9303 63.6836C27.426 63.7482 27.7999 63.2406 27.9729 62.771C28.1459 62.3015 28.2792 61.7555 28.7092 61.5019C29.2981 61.1556 30.051 61.5722 30.7241 61.4581C31.4843 61.3291 31.9784 60.5225 32.0176 59.7516C32.0568 58.9807 31.7499 58.2405 31.4489 57.5287L31.3439 58.4119C31.3578 58.1126 31.2949 57.8146 31.1611 57.5466C31.0272 57.2785 30.8269 57.0493 30.5793 56.8809L30.7141 58.1769C30.6852 57.9983 30.6215 57.827 30.5264 57.673C30.4314 57.5191 30.3069 57.3854 30.1602 57.2797C30.0135 57.1739 29.8473 57.0982 29.6713 57.0569C29.4953 57.0156 29.3129 57.0094 29.1345 57.0388L29.1564 57.811C28.2809 57.676 27.3939 57.6324 26.5095 57.6811C25.6203 57.7327 24.7695 58.0611 24.0759 58.6204C23.0777 59.4892 22.7131 60.9191 22.8345 62.2375C22.9559 63.556 23.5012 64.7947 24.068 65.9915C24.2104 66.2924 24.4077 66.6321 24.7383 66.6704C24.8881 66.6725 25.0344 66.6245 25.1541 66.5342C25.2738 66.4438 25.3601 66.3162 25.3993 66.1713C25.4704 65.8792 25.4677 65.574 25.3912 65.2833C25.2744 64.8455 25.2373 64.3903 25.2819 63.9394C25.3602 63.4942 25.6804 63.054 26.1286 62.9997C26.5769 62.9454 27.0358 63.4583 26.8203 63.8562L26.9303 63.6836Z" fill="#2F2E43"/>
<path d="M42.4115 104.605L49.7241 90.5867C49.8651 90.3171 50.1072 90.1145 50.3972 90.0234C50.6872 89.9323 51.0015 89.9601 51.2711 90.1007L61.8855 95.6507C62.1547 95.7919 62.3571 96.0343 62.4481 96.3246C62.5391 96.615 62.5113 96.9297 62.3709 97.1995L55.0583 111.218C54.9173 111.487 54.6752 111.69 54.3852 111.781C54.0951 111.872 53.7809 111.844 53.5113 111.704L42.8969 106.154C42.6277 106.012 42.4254 105.77 42.3344 105.48C42.2434 105.189 42.2711 104.875 42.4115 104.605Z" fill="#3F3D56"/>
</g>
<defs>
<linearGradient id="paint0_linear_132_614" x1="95.8149" y1="136.401" x2="118.687" y2="136.401" gradientUnits="userSpaceOnUse">
<stop stop-color="#5CE1E6"/>
<stop offset="1" stop-color="#FF3131"/>
</linearGradient>
<linearGradient id="paint1_linear_132_614" x1="73.2612" y1="64.9646" x2="139.269" y2="64.9646" gradientUnits="userSpaceOnUse">
<stop stop-color="#5CE1E6"/>
<stop offset="1" stop-color="#FF3131"/>
</linearGradient>
<clipPath id="clip0_132_614">
<rect width="210" height="148.235" fill="white"/>
</clipPath>
</defs>
</svg>
